<svg width="504" height="122" viewBox="0 0 504 122" fill="none" xmlns="http://www.w3.org/2000/svg">
<path d="M24.3725 76.8527V13.174H0V0H63.2339V13.174H38.8613V76.8461H24.3725V76.8527Z" fill="white"/>
<path d="M110.001 54.5665H67.7321C68.1704 58.0072 69.8188 60.7872 72.6707 62.9065C75.5227 65.0324 79.2577 66.0921 83.8693 66.0921C86.5054 66.0921 89.2134 65.6342 91.9935 64.7184C94.7735 63.8027 96.8928 62.5795 98.3581 61.0423L106.921 69.4935C104.212 72.352 100.733 74.5237 96.4938 76.0282C92.2486 77.5261 87.9706 78.2784 83.6469 78.2784C74.4238 78.2784 67.163 75.6619 61.8581 70.4289C56.5466 65.1959 53.8975 58.1903 53.8975 49.4055C53.8975 40.6206 56.5139 34.256 61.7469 28.9838C66.9799 23.7116 73.9528 21.082 82.6592 21.082C91.9542 21.082 99.0907 23.9536 104.069 29.6968C109.046 35.4465 111.022 43.7342 109.995 54.5665H110.001ZM67.948 43.4791H97.1479C96.7097 40.0385 95.2444 37.422 92.7588 35.6297C90.2666 33.8374 87.0483 32.9412 83.0974 32.9412C79.3624 32.9412 76.1441 33.8374 73.4361 35.6297C70.728 37.422 68.8964 40.0385 67.948 43.4791Z" fill="white"/>
<path d="M163.131 28.3235L155.668 37.1083C152.227 33.89 147.766 32.2809 142.271 32.2809C135.684 32.2809 132.394 34.0732 132.394 37.6578C132.394 41.2424 135.756 43.1458 142.494 43.5841C144.907 43.728 147.046 43.9504 148.917 44.2448C150.788 44.5391 152.816 45.069 155.014 45.8343C157.211 46.6061 159.036 47.5939 160.502 48.7975C161.967 50.0076 163.19 51.6363 164.178 53.6837C165.165 55.7311 165.663 58.1514 165.663 60.9314C165.663 65.9812 163.628 70.2068 159.573 73.6148C155.511 77.0162 149.781 78.7169 142.389 78.7169C137.411 78.7169 132.911 78.0563 128.888 76.7415C124.865 75.4267 121.019 72.8626 117.362 69.0556L123.949 59.5054C125.781 61.5528 128.561 63.3124 132.296 64.7776C136.031 66.2429 139.465 67.0082 142.618 67.0867C145.254 67.1586 147.537 66.5765 149.48 65.3271C151.416 64.0843 152.39 62.5078 152.39 60.6043C152.39 58.7008 151.566 57.4188 149.918 56.5422C148.27 55.6592 145.509 55.1163 141.63 54.8939C138.772 54.6715 136.142 54.2528 133.722 53.6314C131.308 53.01 128.947 52.0942 126.644 50.8841C124.335 49.674 122.53 47.9733 121.209 45.782C119.894 43.5841 119.233 41.0265 119.233 38.096C119.233 35.1656 119.946 32.4641 121.372 30.1943C122.798 27.9245 124.669 26.1714 126.971 24.922C129.28 23.6792 131.707 22.7438 134.271 22.1224C136.829 21.501 139.432 21.187 142.068 21.187C150.703 21.187 157.728 23.568 163.144 28.3235H163.131Z" fill="white"/>
<path d="M227.901 54.5665H185.632C186.07 58.0072 187.719 60.7872 190.571 62.9065C193.423 65.0324 197.158 66.0921 201.769 66.0921C204.405 66.0921 207.113 65.6342 209.893 64.7184C212.673 63.8027 214.793 62.5795 216.258 61.0423L224.82 69.4935C222.112 72.352 218.632 74.5237 214.394 76.0282C210.148 77.5261 205.871 78.2784 201.547 78.2784C192.324 78.2784 185.063 75.6619 179.758 70.4289C174.447 65.1959 171.797 58.1903 171.797 49.4055C171.797 40.6206 174.414 34.256 179.647 28.9838C184.88 23.7116 191.853 21.082 200.559 21.082C209.854 21.082 216.991 23.9536 221.968 29.6968C226.946 35.4465 228.922 43.7342 227.895 54.5665H227.901ZM185.854 43.4791H215.054C214.616 40.0385 213.151 37.422 210.665 35.6297C208.173 33.8374 204.955 32.9412 201.004 32.9412C197.269 32.9412 194.051 33.8374 191.342 35.6297C188.634 37.422 186.803 40.0385 185.854 43.4791Z" fill="white"/>
<path d="M238.223 22.7307H250.625L251.613 28.9906C253.517 25.9162 255.708 23.8688 258.2 22.8419C260.686 21.8149 263.577 21.3047 266.874 21.3047C272.728 21.3047 277.372 23.025 280.813 26.4657L274.776 38.1025C271.996 35.7608 268.777 34.5899 265.114 34.5899C261.235 34.5899 258.017 35.7084 255.453 37.939C252.889 40.1695 251.607 43.6298 251.607 48.3133V76.8592H238.217V22.7307H238.223Z" fill="white"/>
<path d="M328.355 30.1939L328.794 22.7304H341.64V76.8524H329.016L328.355 68.9506C326.89 71.881 324.437 74.1835 320.996 75.8646C317.556 77.5457 314.154 78.4222 310.786 78.5007C302.511 78.5727 295.8 76.1066 290.639 71.0895C285.478 66.079 282.9 58.9556 282.9 49.739C282.9 40.5225 285.55 33.7458 290.861 28.7679C296.166 23.7901 302.916 21.3437 311.119 21.4156C314.776 21.4156 318.184 22.2202 321.33 23.8293C324.476 25.4384 326.818 27.5643 328.355 30.2004V30.1939ZM312.323 33.3729C307.711 33.3729 303.885 34.8382 300.849 37.7621C297.814 40.6925 296.29 44.6761 296.29 49.726C296.29 54.7758 297.808 58.779 300.849 61.7487C303.885 64.7119 307.711 66.1967 312.323 66.1967C316.346 66.1967 319.734 65.0651 322.481 62.7953C325.229 60.5255 326.91 57.7847 327.531 54.5599C328.152 51.3416 328.152 48.1364 327.531 44.9509C326.91 41.7653 325.229 39.0376 322.481 36.7744C319.734 34.5046 316.352 33.3729 312.323 33.3729Z" fill="white"/>
<path d="M391.478 61.1538L400.479 69.9386C394.697 75.6491 387.743 78.5011 379.619 78.5011C371.495 78.5011 364.489 76.0285 359.034 71.0899C353.579 66.1513 350.857 59.0671 350.857 49.844C350.857 40.6209 353.585 33.5434 359.034 28.5982C364.483 23.6596 371.351 21.187 379.619 21.187C387.233 21.187 393.742 23.8558 399.164 29.2L390.713 38.0895C387.495 35.2375 383.871 33.805 379.848 33.805C375.308 33.805 371.573 35.3095 368.65 38.3054C365.719 41.3078 364.26 45.154 364.26 49.831C364.26 54.8088 365.726 58.6878 368.65 61.4678C371.573 64.2478 375.236 65.6411 379.626 65.6411C384.532 65.6411 388.482 64.1431 391.485 61.1407L391.478 61.1538Z" fill="white"/>
<path d="M411.892 8.8962L425.289 7.47021V22.8421H440.216V34.3677H425.177V57.7525C425.177 60.2381 425.818 62.1416 427.101 63.463C428.383 64.7843 430.083 65.4384 432.209 65.4384C434.335 65.4384 436.494 64.8889 438.685 63.79L442.42 75.2044C438.835 76.6697 435.14 77.435 431.333 77.5135C425.328 77.7359 420.592 76.1398 417.119 72.7384C413.639 69.337 411.905 64.3395 411.905 57.7525V34.3677H401.806V22.8421H411.905V8.90274L411.892 8.8962Z" fill="white"/>
<path d="M455.367 29.756C460.488 24.3399 467.258 21.6318 475.677 21.6318C484.096 21.6318 490.918 24.3399 496.151 29.756C501.384 35.1721 504 41.8703 504 49.8441C504 57.8178 501.436 64.6076 496.315 69.991C491.193 75.3679 484.351 78.0563 475.782 78.0563C467.213 78.0563 460.397 75.3679 455.308 69.991C450.219 64.6076 447.681 57.8963 447.681 49.8441C447.681 41.7918 450.238 35.1721 455.367 29.756ZM475.788 33.8116C471.177 33.8116 467.572 35.388 464.976 38.5343C462.379 41.6806 461.077 45.4484 461.077 49.8441C461.077 54.2398 462.372 57.9879 464.976 61.0949C467.572 64.2086 471.177 65.7588 475.788 65.7588C480.4 65.7588 484.004 64.202 486.601 61.0949C489.198 57.9879 490.499 54.2332 490.499 49.8441C490.499 45.4549 489.126 41.8703 486.385 38.6455C483.638 35.4272 480.112 33.8116 475.788 33.8116Z" fill="white"/>
<path d="M218.663 111.854C219.073 116.626 223.118 120.354 227.983 120.354C230.662 120.354 233.071 119.217 234.8 117.399L235.984 118.49C233.985 120.624 231.166 121.989 227.983 121.989C221.939 121.989 217.027 117.077 217.027 111.034C217.027 104.99 221.981 100.078 227.983 100.078C231.618 100.078 234.847 101.849 236.846 104.58L237.256 105.172L236.711 105.67C234.665 107.399 230.667 111.849 226.529 111.849H218.663V111.854ZM235.029 104.948C233.3 102.949 230.802 101.677 227.983 101.677C223.165 101.677 219.073 105.447 218.663 110.224H226.571C229.618 110.224 232.931 106.812 235.024 104.954L235.029 104.948Z" fill="white"/>
<path d="M254.344 115.899C254.344 110.265 239.754 112.218 239.754 105.354C239.754 102.264 243.165 100.083 247.028 100.083C250.029 100.083 252.708 101.267 254.344 103.266L253.119 104.357C251.8 102.768 249.619 101.678 247.028 101.678C244.074 101.678 241.348 103.266 241.348 105.359C241.348 110.494 255.985 108.677 255.985 115.904C255.985 119.539 251.623 121.995 247.028 121.995C242.433 121.995 239.484 120.224 238.118 118.36L239.39 117.358C240.434 118.724 242.89 120.359 247.023 120.359C251.384 120.359 254.339 118.038 254.339 115.904L254.344 115.899Z" fill="white"/>
<path d="M261.613 95.6289V100.489H269.749V102.083H261.613V115.899C261.613 118.355 263.612 120.354 266.068 120.354C267.252 120.354 268.342 119.944 269.251 119.311L270.206 120.629C269.069 121.491 267.615 121.995 266.068 121.995C262.704 121.995 259.978 119.269 259.978 115.905V102.088H256.748V100.494H259.978V95.6341H261.613V95.6289Z" fill="white"/>
<path d="M274.156 100.494V114.674C274.156 118.355 276.7 120.354 280.657 120.354C286.02 120.354 290.429 115.671 290.429 109.809V100.489H292.017V121.58H290.652L290.47 115.577H290.335C288.471 119.394 284.837 121.985 280.657 121.985C275.792 121.985 272.567 119.212 272.567 114.669V100.489H274.156V100.494Z" fill="white"/>
<path d="M295.248 111.039C295.248 105.042 299.931 100.084 305.793 100.084C309.61 100.13 312.974 102.399 314.703 105.764V90.7168H316.339V121.579H314.973L314.792 116.351H314.657C312.928 119.669 309.61 121.943 305.793 121.984C299.931 121.984 295.248 116.984 295.248 111.029V111.039ZM314.703 111.039C314.703 105.904 310.705 101.678 305.793 101.678C300.882 101.678 296.884 105.904 296.884 111.039C296.884 116.174 300.887 120.359 305.793 120.359C310.7 120.359 314.703 116.133 314.703 111.039Z" fill="white"/>
<path d="M321.973 92.3574C322.747 92.3574 323.427 92.9961 323.427 93.7645C323.427 94.533 322.747 95.2183 321.973 95.2183C321.2 95.2183 320.566 94.5382 320.566 93.7645C320.566 92.9909 321.2 92.3574 321.973 92.3574ZM322.789 100.494V121.584H321.2V100.494H322.789Z" fill="white"/>
<path d="M347.107 111.039C347.107 117.083 342.382 121.995 336.562 121.995C330.742 121.995 326.017 117.083 326.017 111.039C326.017 104.995 330.742 100.083 336.562 100.083C342.382 100.083 347.107 104.995 347.107 111.039ZM327.652 111.039C327.652 116.221 331.697 120.359 336.562 120.359C341.427 120.359 345.472 116.221 345.472 111.039C345.472 105.857 341.427 101.678 336.562 101.678C331.697 101.678 327.652 105.857 327.652 111.039Z" fill="white"/>
<path d="M382.016 103.583L380.832 104.72C379.108 102.903 376.922 101.672 374.29 101.672C369.154 101.672 364.97 105.945 364.97 111.034C364.97 116.122 369.196 120.354 374.29 120.354C376.927 120.354 379.108 119.17 380.832 117.353L382.016 118.49C378.786 121.943 375.245 121.989 374.29 121.989C368.287 121.989 363.334 117.036 363.334 111.034C363.334 105.032 368.246 100.078 374.29 100.078C375.245 100.078 378.791 100.125 382.016 103.578V103.583Z" fill="white"/>
<path d="M387.418 100.494L387.6 107.264H387.693C389.51 102.991 393.192 100.083 397.418 100.083L397.236 101.719C391.961 101.854 387.646 107.036 387.646 113.448V121.585H386.058V100.494H387.423H387.418Z" fill="white"/>
<path d="M399.055 111.854C399.466 116.626 403.51 120.354 408.376 120.354C411.055 120.354 413.464 119.217 415.193 117.399L416.377 118.49C414.378 120.624 411.558 121.989 408.376 121.989C402.332 121.989 397.42 117.077 397.42 111.034C397.42 104.99 402.373 100.078 408.376 100.078C412.01 100.078 415.24 101.849 417.239 104.58L417.649 105.172L417.104 105.67C415.058 107.399 411.06 111.849 406.922 111.849H399.055V111.854ZM415.416 104.948C413.687 102.949 411.19 101.677 408.37 101.677C403.552 101.677 399.46 105.447 399.05 110.224H406.958C410.006 110.224 413.319 106.812 415.411 104.954L415.416 104.948Z" fill="white"/>
<path d="M418.507 115.084C418.507 111.403 422.235 108.583 426.597 108.583H436.368V106.584C436.368 104.04 433.232 101.678 429.053 101.678C426.233 101.678 423.824 102.451 422.053 103.542L421.192 102.181C423.326 100.863 426.051 100.089 429.053 100.089C433.824 100.089 437.962 102.862 437.962 106.59V121.59H436.597L436.415 117.135H436.368C434.639 120.043 431.28 122 427.412 122C421.732 122 418.502 118.952 418.502 115.089L418.507 115.084ZM436.374 113.085V110.224H426.602C422.874 110.224 420.148 112.54 420.148 115.084C420.148 117.945 422.51 120.359 427.422 120.359C432.334 120.359 436.379 116.543 436.379 113.085H436.374Z" fill="white"/>
<path d="M444.052 95.6289V100.489H452.188V102.083H444.052V115.899C444.052 118.355 446.051 120.354 448.507 120.354C449.69 120.354 450.781 119.944 451.689 119.311L452.645 120.629C451.508 121.491 450.054 121.995 448.507 121.995C445.142 121.995 442.416 119.269 442.416 115.905V102.088H439.187V100.494H442.416V95.6341H444.052V95.6289Z" fill="white"/>
<path d="M456.184 92.3574C456.958 92.3574 457.638 92.9961 457.638 93.7645C457.638 94.533 456.958 95.2183 456.184 95.2183C455.411 95.2183 454.777 94.5382 454.777 93.7645C454.777 92.9909 455.411 92.3574 456.184 92.3574ZM457.005 100.494V121.584H455.416V100.494H457.005Z" fill="white"/>
<path d="M461.368 100.13L471.186 119.445L481.005 100.13L482.459 100.857L471.732 121.948H470.641L459.914 100.857L461.368 100.13Z" fill="white"/>
<path d="M504 111.039C504 117.083 499.275 121.995 493.455 121.995C487.634 121.995 482.909 117.083 482.909 111.039C482.909 104.995 487.634 100.083 493.455 100.083C499.275 100.083 504 104.995 504 111.039ZM484.545 111.039C484.545 116.221 488.589 120.359 493.455 120.359C498.32 120.359 502.364 116.221 502.364 111.039C502.364 105.857 498.32 101.678 493.455 101.678C488.589 101.678 484.545 105.857 484.545 111.039Z" fill="white"/>
</svg>
